Coordinates
version=1
nRows=17
nColumns=33
inDegrees=yes

Units are S.I. units (second, meters, Newtons, ...)
Angles are in degrees.

endheader
time	ground_thorax_rot_x	ground_thorax_rot_y	ground_thorax_rot_z	ground_thorax_tx	ground_thorax_ty	ground_thorax_tz	clav_prot_r	clav_elev_r	scapula_abduction_r	scapula_elevation_r	scapula_upward_rot_r	scapula_winging_r	shoulder_elv_r	plane_of_elev_r	axial_rot_r	elbow_flexion_r	pro_sup_r	wrist_flex_r	wrist_dev_r	clav_prot_l	clav_elev_l	scapula_abduction_l	scapula_elevation_l	scapula_upward_rot_l	scapula_winging_l	shoulder_elv_l	plane_of_elev_l	axial_rot_l	elbow_flexion_l	pro_sup_l	wrist_flex_l	wrist_dev_l
      6.60000000	    -32.42034951	    -29.52880231	     35.91662390	   -116.43902331	    869.57588273	    -46.17501292	     19.87322782	    -45.00000000	     44.13030095	    -45.00000000	    -13.88217309	   1682.57447036	   2068.26369620	    144.44120359	   -179.99999979	   1789.10776916	     62.27962436	     28.76758974	     16.03768982	     -2.13280127	     34.38171678	    -32.63932990	    -45.00000000	    -45.00000000	   4052.65146392	  -4407.72084309	    134.75708824	   -119.42428290	    710.15676953	    403.93311452	     13.13761386	    -23.16156877
      6.61000000	    -32.73518119	    -29.17889336	     35.53630906	   -116.40781628	    869.00508761	    -46.14403048	     19.66723619	    -45.00000000	     43.65548143	    -45.00000000	    -13.78305694	   1682.78257008	   2068.25375726	    144.43231151	   -179.99999979	   1788.97684771	     61.56058999	     29.05318264	     16.40616372	     -2.15799872	     34.40496038	    -32.75581726	    -45.00000000	    -45.00000000	   4052.59360063	  -4407.69297711	    134.63224473	   -119.00312351	    710.10390474	    403.82736041	     13.47339781	    -23.78234824
      6.62000000	    -32.61211385	    -29.26648639	     35.81188319	   -116.29195293	    868.35075221	    -46.11545673	     19.62708958	    -45.00000000	     43.87459507	    -45.00000000	    -13.81384321	   1682.62910589	   2068.07996770	    144.50541831	   -179.99999979	   1789.02379857	     61.18938010	     28.72427100	     16.30610711	     -1.93571655	     34.28663964	    -32.62139829	    -45.00000000	    -45.00000000	   4052.39327500	  -4407.72293912	    134.72668577	   -118.83381989	    710.18566906	    403.82074460	     12.96148467	    -23.18421206
      6.63000000	    -32.68264621	    -29.15875515	     35.80844162	   -116.09577741	    867.65208222	    -46.08549681	     19.80510702	    -45.00000000	     43.68351293	    -45.00000000	    -14.10218500	   1682.58133450	   2067.93289372	    144.38023881	   -179.99999979	   1789.02452564	     60.99887830	     29.18921162	     16.52767249	     -2.21817997	     34.37299671	    -32.58181340	    -45.00000000	    -45.00000000	   4052.45502425	  -4407.69876333	    134.59042931	   -118.82714065	    710.24836774	    403.79495977	     13.33832669	    -23.88427761
      6.64000000	    -32.53570086	    -29.29539747	     36.20345837	   -115.82543901	    866.94607081	    -46.05193782	     19.87717397	    -45.00000000	     43.76516741	    -45.00000000	    -14.39816751	   1682.50727322	   2067.79700240	    144.50161945	   -179.99999979	   1789.16468620	     60.92199581	     28.97938472	     16.39214579	     -1.97101995	     34.25568805	    -32.54679735	    -45.00000000	    -45.00000000	   4052.33798817	  -4407.75876942	    134.73245007	   -118.87534529	    710.32477482	    403.83420395	     12.88267022	    -23.39217351
      6.65000000	    -32.50449063	    -29.23853018	     36.25999460	   -115.48789277	    866.27199707	    -46.01530892	     20.01783144	    -45.00000000	     43.75133075	    -45.00000000	    -14.75294902	   1682.44402166	   2067.65243055	    144.38920152	   -179.99999979	   1789.21483748	     60.87257592	     29.34595960	     16.49188758	     -2.22621564	     34.36033506	    -32.43473832	    -45.00000000	    -45.00000000	   4052.34561721	  -4407.76198136	    134.63161276	   -118.87986064	    710.45248170	    403.82628869	     13.16351432	    -23.88266946
      6.66000000	    -32.28933155	    -29.36709608	     36.66371479	   -115.08089881	    865.65113271	    -45.97321394	     20.11853275	    -45.00000000	     43.83935407	    -45.00000000	    -15.09947551	   1682.46569001	   2067.59044119	    144.48409413	   -179.99999979	   1789.34516552	     60.87149550	     29.13368441	     16.37872831	     -1.95072347	     34.20866481	    -32.46250050	    -45.00000000	    -45.00000000	   4052.26048968	  -4407.84891360	    134.74170405	   -118.81933830	    710.48863062	    403.83768755	     12.76448108	    -23.44266978
      6.67000000	    -32.26258198	    -29.24641792	     36.67191111	   -114.59797609	    865.09899768	    -45.92557915	     20.26746957	    -45.00000000	     43.79610650	    -45.00000000	    -15.43976860	   1682.32935448	   2067.44056726	    144.30237388	   -179.99999979	   1789.44498064	     60.80938297	     29.75192851	     16.55074068	     -2.35038479	     34.44150722	    -32.36098374	    -45.00000000	    -45.00000000	   4052.31821472	  -4407.85120272	    134.54365840	   -118.68267336	    710.65862063	    403.78966295	     13.28028249	    -24.03294579
      6.68000000	    -32.11212677	    -29.32080340	     36.95216229	   -114.02292626	    864.61385630	    -45.86864312	     20.41536963	    -45.00000000	     43.75304215	    -45.00000000	    -15.74809115	   1682.42741063	   2067.30867754	    144.39248633	   -179.99999979	   1789.61237267	     60.82658239	     29.62269148	     16.49086684	     -2.09650413	     34.29990000	    -32.37269348	    -45.00000000	    -45.00000000	   4052.27051748	  -4407.83561475	    134.52879447	   -118.56057538	    710.62219890	    403.73131743	     12.95414099	    -23.70020372
      6.69000000	    -31.77844916	    -29.46392802	     37.56475773	   -113.35026046	    864.19548562	    -45.80120171	     20.24925160	    -45.00000000	     43.73928557	    -45.00000000	    -16.07547625	   1682.48064823	   2067.47226758	    144.59135916	   -179.99999979	   1790.03441037	     60.72506071	     29.53593084	     16.20172992	     -2.08080334	     34.24002475	    -32.65762066	    -45.00000000	    -45.00000000	   4052.17635811	  -4408.07085144	    134.96874144	   -118.14334781	    710.62012411	    403.68802527	     13.09081961	    -23.76794683
      6.70000000	    -31.84737826	    -29.30146427	     37.33769466	   -112.54536667	    863.81506666	    -45.71948578	     20.49413896	    -45.00000000	     43.78532042	    -45.00000000	    -16.34699716	   1682.49475632	   2067.04143945	    144.44976638	   -179.99999979	   1789.99265545	     60.78954293	     29.90634538	     16.49774268	     -2.13152282	     34.27600570	    -32.47858366	    -45.00000000	    -45.00000000	   4052.22889099	  -4407.93114766	    134.41800857	   -118.09839384	    710.61685930	    403.58009510	     13.05348745	    -23.68895264
      6.71000000	    -31.68155618	    -29.34365834	     37.55681414	   -111.61309372	    863.47023522	    -45.62804462	     20.40027502	    -45.00000000	     43.74384743	    -45.00000000	    -16.61135632	   1682.72864197	   2066.97762798	    144.58288781	   -179.99999979	   1790.21778302	     60.77184027	     29.97494974	     16.43364069	     -2.03149910	     34.25371836	    -32.42884163	    -45.00000000	    -45.00000000	   4052.07934036	  -4407.85723024	    134.42162722	   -117.76470708	    710.65228727	    403.43139659	     13.15120656	    -23.64328502
      6.72000000	    -31.44998669	    -29.45510890	     37.90048975	   -110.53712773	    863.14193996	    -45.52877985	     20.44977354	    -45.00000000	     43.80648415	    -45.00000000	    -16.88185621	   1682.83904137	   2066.86622171	    144.63587690	   -179.99999979	   1790.40239506	     60.76336850	     30.05408432	     16.43242974	     -2.07100341	     34.22762063	    -32.38348295	    -45.00000000	    -45.00000000	   4051.97996248	  -4407.78951923	    134.40971027	   -117.39330453	    710.62136983	    403.28140123	     13.21704038	    -23.54682257
      6.73000000	    -31.17227990	    -29.59982735	     38.30185623	   -109.31491124	    862.81493399	    -45.42429566	     20.57088710	    -45.00000000	     43.92315500	    -45.00000000	    -17.13781801	   1682.91666087	   2066.75388370	    144.69973417	   -179.99999979	   1790.63058382	     60.73260891	     30.15765232	     16.45811966	     -2.19328306	     34.17512978	    -32.34347453	    -45.00000000	    -45.00000000	   4051.88272932	  -4407.73237469	    134.38645834	   -116.95971420	    710.57961638	    403.10477185	     13.31765730	    -23.46837963
      6.74000000	    -30.93297590	    -29.68044029	     38.65189260	   -107.93929784	    862.47210603	    -45.31571581	     20.61387978	    -45.00000000	     43.91111063	    -45.00000000	    -17.37496375	   1683.06109226	   2066.66987634	    144.72303710	   -179.99999979	   1790.83702502	     60.68789651	     30.22838433	     16.50941934	     -2.18201529	     34.15342895	    -32.35485232	    -45.00000000	    -45.00000000	   4051.79017762	  -4407.72591284	    134.34032075	   -116.56726695	    710.58836583	    402.91871333	     13.40259175	    -23.40532540
      6.75000000	    -30.61143349	    -29.90278927	     39.16292539	   -106.41108037	    862.09944644	    -45.20376252	     20.64091187	    -45.00000000	     43.97943991	    -45.00000000	    -17.59290866	   1683.22288848	   2066.58289389	    144.80524443	   -179.99999979	   1791.01643653	     60.62627189	     30.24656368	     16.57865158	     -2.28387523	     34.09206293	    -32.26714280	    -45.00000000	    -45.00000000	   4051.63286191	  -4407.62092760	    134.36154187	   -116.12706799	    710.49989506	    402.77832083	     13.52210047	    -23.28686600
      6.76000000	    -30.27690462	    -30.09851553	     39.68130179	   -104.73321986	    861.68512025	    -45.08825329	     20.74257301	    -45.00000000	     43.98830856	    -45.00000000	    -17.82999483	   1683.37399246	   2066.45982829	    144.81472508	   -179.99999979	   1791.18035649	     60.54576064	     30.25812113	     16.68577364	     -2.34833157	     34.05477765	    -32.13831060	    -45.00000000	    -45.00000000	   4051.46901275	  -4407.48072838	    134.32171033	   -115.66865205	    710.43310126	    402.61455602	     13.63831017	    -23.11008893
